<svg id="navigation" xmlns="http://www.w3.org/2000/svg" width="46" height="46" viewBox="0 0 46 46">
  <defs>
    <style>
      .cls-1 {
        fill: #fff;
        fill-rule: evenodd;
      }
    </style>
  </defs>
  <g id="middlebelt-content-right">
    <g id="icon-settings">
      <path id="icon-settings-2" data-name="icon-settings" class="cls-1" d="M43.851,17.7l-3.485,2.028A18.066,18.066,0,0,1,40.69,23a18.058,18.058,0,0,1-.324,3.276L43.851,28.3a3.013,3.013,0,0,1,1.089,4.1l-2.976,5.2A2.964,2.964,0,0,1,37.9,38.7l-3.52-2.049a17.805,17.805,0,0,1-5.593,3.307V42.5a2.988,2.988,0,0,1-2.976,3H19.856a2.988,2.988,0,0,1-2.976-3V39.954a17.805,17.805,0,0,1-5.593-3.307L7.766,38.7A2.964,2.964,0,0,1,3.7,37.6L0.724,32.4a3.013,3.013,0,0,1,1.089-4.1L5.3,26.276A18.1,18.1,0,0,1,4.975,23,18.1,18.1,0,0,1,5.3,19.724L1.813,17.7A3.013,3.013,0,0,1,.724,13.6L3.7,8.4A2.963,2.963,0,0,1,7.766,7.3l3.521,2.049A17.8,17.8,0,0,1,16.88,6.046V3.5a2.988,2.988,0,0,1,2.976-3h5.953a2.988,2.988,0,0,1,2.976,3V6.046a17.8,17.8,0,0,1,5.593,3.307L37.9,7.3a2.964,2.964,0,0,1,4.066,1.1l2.976,5.2A3.013,3.013,0,0,1,43.851,17.7Zm-2.232-3.9-1.488-2.6a1.482,1.482,0,0,0-2.033-.549l-4.135,2.406A14.828,14.828,0,0,0,25.809,8.3V5A1.494,1.494,0,0,0,24.32,3.5H21.344A1.494,1.494,0,0,0,19.856,5V8.3A14.828,14.828,0,0,0,11.7,13.058L7.566,10.652a1.482,1.482,0,0,0-2.033.549L4.046,13.8a1.507,1.507,0,0,0,.545,2.049l4.151,2.416a14.583,14.583,0,0,0,0,9.472L4.59,30.152A1.506,1.506,0,0,0,4.046,32.2l1.488,2.6a1.481,1.481,0,0,0,2.033.549L11.7,32.942A14.828,14.828,0,0,0,19.856,37.7V41a1.494,1.494,0,0,0,1.488,1.5H24.32A1.494,1.494,0,0,0,25.809,41V37.7a14.828,14.828,0,0,0,8.155-4.757L38.1,35.348a1.482,1.482,0,0,0,2.033-.549l1.488-2.6a1.507,1.507,0,0,0-.545-2.049l-4.151-2.416a14.579,14.579,0,0,0,0-9.472l4.151-2.416A1.507,1.507,0,0,0,41.619,13.8ZM22.832,30.5A7.5,7.5,0,1,1,30.273,23,7.471,7.471,0,0,1,22.832,30.5Zm0-12A4.5,4.5,0,1,0,27.3,23,4.482,4.482,0,0,0,22.832,18.5Z"/>
    </g>
  </g>
</svg>
